<mxfile host="app.diagrams.net" agent="Mozilla/5.0 (Windows NT 10.0; Win64; x64) AppleWebKit/537.36 (KHTML, like Gecko) Chrome/127.0.0.0 Safari/537.36" version="24.7.6">
  <diagram name="Page-1" id="ZMjTDfHYbrSzt3O4qVKs">
    <mxGraphModel dx="2045" dy="615" grid="1" gridSize="10" guides="1" tooltips="1" connect="1" arrows="1" fold="1" page="1" pageScale="1" pageWidth="850" pageHeight="1100" math="0" shadow="0">
      <root>
        <mxCell id="0" />
        <mxCell id="1" parent="0" />
        <mxCell id="BYCdejhZQNAWZR4JUP7a-10" value="" style="endArrow=none;html=1;rounded=0;entryX=0.5;entryY=1;entryDx=0;entryDy=0;entryPerimeter=0;exitX=0.566;exitY=-0.001;exitDx=0;exitDy=0;exitPerimeter=0;" edge="1" parent="1">
          <mxGeometry width="50" height="50" relative="1" as="geometry">
            <mxPoint x="225.5" y="269.95000000000005" as="sourcePoint" />
            <mxPoint x="225.39999999999998" y="200" as="targetPoint" />
          </mxGeometry>
        </mxCell>
        <mxCell id="BYCdejhZQNAWZR4JUP7a-11" value="" style="endArrow=none;html=1;rounded=0;entryX=0.25;entryY=1;entryDx=0;entryDy=0;" edge="1" parent="1" target="BYCdejhZQNAWZR4JUP7a-19">
          <mxGeometry width="50" height="50" relative="1" as="geometry">
            <mxPoint x="120" y="390" as="sourcePoint" />
            <mxPoint x="222.20000000000005" y="320" as="targetPoint" />
          </mxGeometry>
        </mxCell>
        <mxCell id="BYCdejhZQNAWZR4JUP7a-12" value="" style="endArrow=none;html=1;rounded=0;entryX=0.5;entryY=1;entryDx=0;entryDy=0;entryPerimeter=0;" edge="1" parent="1">
          <mxGeometry width="50" height="50" relative="1" as="geometry">
            <mxPoint x="220" y="390" as="sourcePoint" />
            <mxPoint x="222.20000000000005" y="320" as="targetPoint" />
          </mxGeometry>
        </mxCell>
        <mxCell id="BYCdejhZQNAWZR4JUP7a-13" value="" style="endArrow=none;html=1;rounded=0;entryX=0.69;entryY=1;entryDx=0;entryDy=0;entryPerimeter=0;exitX=0.833;exitY=0.262;exitDx=0;exitDy=0;exitPerimeter=0;" edge="1" parent="1" target="BYCdejhZQNAWZR4JUP7a-19">
          <mxGeometry width="50" height="50" relative="1" as="geometry">
            <mxPoint x="339.98479999999995" y="399.99160000000006" as="sourcePoint" />
            <mxPoint x="222.20000000000005" y="320" as="targetPoint" />
          </mxGeometry>
        </mxCell>
        <mxCell id="BYCdejhZQNAWZR4JUP7a-14" value="" style="endArrow=none;html=1;rounded=0;entryX=0.5;entryY=1;entryDx=0;entryDy=0;entryPerimeter=0;exitX=0.5;exitY=0;exitDx=0;exitDy=0;exitPerimeter=0;" edge="1" parent="1">
          <mxGeometry width="50" height="50" relative="1" as="geometry">
            <mxPoint x="685" y="270" as="sourcePoint" />
            <mxPoint x="685" y="200" as="targetPoint" />
          </mxGeometry>
        </mxCell>
        <mxCell id="BYCdejhZQNAWZR4JUP7a-15" value="" style="endArrow=none;html=1;rounded=0;entryX=0.455;entryY=0.994;entryDx=0;entryDy=0;entryPerimeter=0;exitX=0.658;exitY=0.178;exitDx=0;exitDy=0;exitPerimeter=0;" edge="1" parent="1" target="BYCdejhZQNAWZR4JUP7a-18">
          <mxGeometry width="50" height="50" relative="1" as="geometry">
            <mxPoint x="650.0048000000002" y="390.0003999999999" as="sourcePoint" />
            <mxPoint x="685" y="320" as="targetPoint" />
          </mxGeometry>
        </mxCell>
        <mxCell id="BYCdejhZQNAWZR4JUP7a-16" value="" style="endArrow=none;html=1;rounded=0;entryX=0.541;entryY=1;entryDx=0;entryDy=0;entryPerimeter=0;" edge="1" parent="1" target="BYCdejhZQNAWZR4JUP7a-18">
          <mxGeometry width="50" height="50" relative="1" as="geometry">
            <mxPoint x="722.7018498367793" y="381" as="sourcePoint" />
            <mxPoint x="685" y="320" as="targetPoint" />
          </mxGeometry>
        </mxCell>
        <mxCell id="BYCdejhZQNAWZR4JUP7a-17" value="" style="endArrow=none;html=1;rounded=0;exitX=1;exitY=0.5;exitDx=0;exitDy=0;exitPerimeter=0;entryX=0;entryY=0.5;entryDx=0;entryDy=0;entryPerimeter=0;" edge="1" parent="1">
          <mxGeometry width="50" height="50" relative="1" as="geometry">
            <mxPoint x="251.4000000000001" y="175" as="sourcePoint" />
            <mxPoint x="660" y="175" as="targetPoint" />
          </mxGeometry>
        </mxCell>
        <mxCell id="BYCdejhZQNAWZR4JUP7a-18" value="Switch 2" style="rounded=0;whiteSpace=wrap;html=1;" vertex="1" parent="1">
          <mxGeometry x="630" y="270" width="110" height="50" as="geometry" />
        </mxCell>
        <mxCell id="BYCdejhZQNAWZR4JUP7a-19" value="Switch 1" style="rounded=0;whiteSpace=wrap;html=1;" vertex="1" parent="1">
          <mxGeometry x="170" y="270" width="110" height="50" as="geometry" />
        </mxCell>
        <mxCell id="BYCdejhZQNAWZR4JUP7a-20" value="Router 1" style="ellipse;whiteSpace=wrap;html=1;aspect=fixed;" vertex="1" parent="1">
          <mxGeometry x="190" y="130" width="80" height="80" as="geometry" />
        </mxCell>
        <mxCell id="BYCdejhZQNAWZR4JUP7a-21" value="Router 2" style="ellipse;whiteSpace=wrap;html=1;aspect=fixed;" vertex="1" parent="1">
          <mxGeometry x="645" y="140" width="80" height="80" as="geometry" />
        </mxCell>
        <mxCell id="BYCdejhZQNAWZR4JUP7a-22" value="PC1" style="whiteSpace=wrap;html=1;aspect=fixed;" vertex="1" parent="1">
          <mxGeometry x="80" y="390" width="60" height="60" as="geometry" />
        </mxCell>
        <mxCell id="BYCdejhZQNAWZR4JUP7a-23" value="PC2" style="whiteSpace=wrap;html=1;aspect=fixed;" vertex="1" parent="1">
          <mxGeometry x="190" y="390" width="60" height="60" as="geometry" />
        </mxCell>
        <mxCell id="BYCdejhZQNAWZR4JUP7a-24" value="PC3" style="whiteSpace=wrap;html=1;aspect=fixed;" vertex="1" parent="1">
          <mxGeometry x="310" y="390" width="60" height="60" as="geometry" />
        </mxCell>
        <mxCell id="BYCdejhZQNAWZR4JUP7a-25" value="PC4" style="whiteSpace=wrap;html=1;aspect=fixed;" vertex="1" parent="1">
          <mxGeometry x="620" y="380" width="60" height="60" as="geometry" />
        </mxCell>
        <mxCell id="BYCdejhZQNAWZR4JUP7a-26" value="PC5" style="whiteSpace=wrap;html=1;aspect=fixed;" vertex="1" parent="1">
          <mxGeometry x="700" y="380" width="60" height="60" as="geometry" />
        </mxCell>
        <mxCell id="BYCdejhZQNAWZR4JUP7a-27" value="Sohel Rana&lt;div&gt;Created on 6 August 2024&lt;/div&gt;" style="text;html=1;align=center;verticalAlign=middle;resizable=0;points=[];autosize=1;strokeColor=none;fillColor=none;" vertex="1" parent="1">
          <mxGeometry x="420" y="550" width="160" height="40" as="geometry" />
        </mxCell>
        <mxCell id="BYCdejhZQNAWZR4JUP7a-29" value="22.62.5.2" style="text;html=1;align=center;verticalAlign=middle;resizable=0;points=[];autosize=1;strokeColor=none;fillColor=none;" vertex="1" parent="1">
          <mxGeometry x="65" y="458" width="70" height="30" as="geometry" />
        </mxCell>
        <mxCell id="BYCdejhZQNAWZR4JUP7a-30" value="22.62.5.3" style="text;html=1;align=center;verticalAlign=middle;resizable=0;points=[];autosize=1;strokeColor=none;fillColor=none;" vertex="1" parent="1">
          <mxGeometry x="165" y="458" width="70" height="30" as="geometry" />
        </mxCell>
        <mxCell id="BYCdejhZQNAWZR4JUP7a-31" value="22.62.5.4" style="text;html=1;align=center;verticalAlign=middle;resizable=0;points=[];autosize=1;strokeColor=none;fillColor=none;" vertex="1" parent="1">
          <mxGeometry x="305" y="468" width="70" height="30" as="geometry" />
        </mxCell>
        <mxCell id="BYCdejhZQNAWZR4JUP7a-32" value="22.62.5.1" style="text;html=1;align=center;verticalAlign=middle;resizable=0;points=[];autosize=1;strokeColor=none;fillColor=none;" vertex="1" parent="1">
          <mxGeometry x="220" y="210" width="70" height="30" as="geometry" />
        </mxCell>
        <mxCell id="BYCdejhZQNAWZR4JUP7a-34" value="33.62.6.2" style="text;html=1;align=center;verticalAlign=middle;resizable=0;points=[];autosize=1;strokeColor=none;fillColor=none;" vertex="1" parent="1">
          <mxGeometry x="585" y="448" width="70" height="30" as="geometry" />
        </mxCell>
        <mxCell id="BYCdejhZQNAWZR4JUP7a-35" value="33.62.6.3" style="text;html=1;align=center;verticalAlign=middle;resizable=0;points=[];autosize=1;strokeColor=none;fillColor=none;" vertex="1" parent="1">
          <mxGeometry x="695" y="448" width="70" height="30" as="geometry" />
        </mxCell>
        <mxCell id="BYCdejhZQNAWZR4JUP7a-36" value="33.62.6.1" style="text;html=1;align=center;verticalAlign=middle;resizable=0;points=[];autosize=1;strokeColor=none;fillColor=none;" vertex="1" parent="1">
          <mxGeometry x="680" y="220" width="70" height="30" as="geometry" />
        </mxCell>
        <mxCell id="BYCdejhZQNAWZR4JUP7a-38" value="192.168.5.1" style="text;html=1;align=center;verticalAlign=middle;resizable=0;points=[];autosize=1;strokeColor=none;fillColor=none;" vertex="1" parent="1">
          <mxGeometry x="260" y="140" width="90" height="30" as="geometry" />
        </mxCell>
        <mxCell id="BYCdejhZQNAWZR4JUP7a-39" value="192.168.5.2" style="text;html=1;align=center;verticalAlign=middle;resizable=0;points=[];autosize=1;strokeColor=none;fillColor=none;" vertex="1" parent="1">
          <mxGeometry x="555" y="140" width="90" height="30" as="geometry" />
        </mxCell>
        <mxCell id="BYCdejhZQNAWZR4JUP7a-88" value="Name: Sohel Rana&lt;div&gt;ID: 12272262&lt;/div&gt;" style="text;html=1;align=center;verticalAlign=middle;resizable=0;points=[];autosize=1;strokeColor=none;fillColor=none;" vertex="1" parent="1">
          <mxGeometry x="-10" y="100" width="120" height="40" as="geometry" />
        </mxCell>
        <mxCell id="BYCdejhZQNAWZR4JUP7a-89" value="Name: Shakir Uddin Ahamed&lt;div&gt;ID: 12283362&lt;/div&gt;" style="text;html=1;align=center;verticalAlign=middle;resizable=0;points=[];autosize=1;strokeColor=none;fillColor=none;" vertex="1" parent="1">
          <mxGeometry x="760" y="80" width="180" height="40" as="geometry" />
        </mxCell>
      </root>
    </mxGraphModel>
  </diagram>
</mxfile>
